<?xml version="1.0" encoding="utf-8"?>
<!-- Generator: Adobe Illustrator 21.1.0, SVG Export Plug-In . SVG Version: 6.00 Build 0)  -->
<svg version="1.1" id="Layer_1" xmlns="http://www.w3.org/2000/svg" xmlns:xlink="http://www.w3.org/1999/xlink" x="0px" y="0px"
	 viewBox="0 0 279 64" style="enable-background:new 0 0 279 64;" xml:space="preserve">
<style type="text/css">
	.st0{fill:#F7F5E6;}
</style>
<polygon class="st0" points="37.6,0.1 16.8,50.3 0,38.9 0,49.4 14,58.9 20.4,63.3 23.6,55.7 47,0.1 "/>
<g>
	<path class="st0" d="M76.5,17.4h-8.2V8.8c0-1.1-0.2-1.8-0.5-2.1c-0.3-0.3-1-0.5-2.1-0.5h-4.5c-1.1,0-1.8,0.2-2.1,0.5
		c-0.4,0.3-0.5,1-0.5,2.1v38.1c0,1.1,0.2,1.8,0.5,2.1s1.1,0.5,2.1,0.5h4.5c1.1,0,1.8-0.2,2.1-0.5c0.3-0.3,0.5-1,0.5-2.1v-8.5h8.2
		v9.4c0,5.3-2.8,7.9-8.4,7.9h-9.4c-5.5,0-8.3-2.6-8.3-7.9V7.8c0-5.2,2.8-7.8,8.3-7.8h9.4c5.6,0,8.4,2.6,8.4,7.8V17.4z"/>
	<path class="st0" d="M104.3-0.1h8v55.8h-8V31.2H92.5v24.5h-8V-0.1h8v24.8h11.9V-0.1z"/>
	<path class="st0" d="M129.7,49.2h16.1v6.5h-24.2V-0.1h23.6v6.5h-15.5v17.2h12.8v6.5h-12.8V49.2z"/>
	<path class="st0" d="M177.9,17.4h-8.2V8.8c0-1.1-0.2-1.8-0.5-2.1c-0.3-0.3-1-0.5-2.1-0.5h-4.5c-1.1,0-1.8,0.2-2.1,0.5
		c-0.4,0.3-0.5,1-0.5,2.1v38.1c0,1.1,0.2,1.8,0.5,2.1s1.1,0.5,2.1,0.5h4.5c1.1,0,1.8-0.2,2.1-0.5c0.3-0.3,0.5-1,0.5-2.1v-8.5h8.2
		v9.4c0,5.3-2.8,7.9-8.4,7.9H160c-5.5,0-8.3-2.6-8.3-7.9V7.8c0-5.2,2.8-7.8,8.3-7.8h9.4c5.6,0,8.4,2.6,8.4,7.8V17.4z"/>
	<path class="st0" d="M185.8,55.7V-0.1h8v55.8H185.8z M214.5-0.1l-11.8,28l11.7,27.8h-8.7l-11.3-27.8l11.5-28H214.5z"/>
	<path class="st0" d="M233.7-0.1h8v55.8h-8V-0.1z"/>
	<path class="st0" d="M271.5-0.1h7.4v55.8h-8.1l-11.8-40.3v40.3h-7.4V-0.1h8.5l11.4,39.1V-0.1z"/>
</g>
</svg>
